<svg width="670" height="450" viewBox="0 0 630 493" fill="none" xmlns="http://www.w3.org/2000/svg"><g><path d="M227.576 492.474C178.372 492.474 138.348 452.45 138.348 403.246C138.348 388.726 141.915 374.321 148.651 361.585L149.574 362.078C142.912 374.668 139.387 388.915 139.387 403.256C139.387 451.883 178.939 491.435 227.566 491.435C256.375 491.435 283.432 477.314 299.935 453.656L300.795 454.254C284.093 478.195 256.721 492.484 227.566 492.484L227.576 492.474Z" fill="white"></path><path d="M441.693 407.788C436.405 407.788 431.075 407.484 425.861 406.875L425.987 405.837C431.17 406.435 436.457 406.739 441.703 406.739C516.348 406.739 577.072 346.016 577.072 271.37C577.072 213.018 539.912 161.411 484.602 142.947L484.938 141.95C540.678 160.562 578.121 212.567 578.121 271.37C578.121 346.593 516.925 407.788 441.703 407.788H441.693Z" fill="white"></path><path d="M303.952 367.806C251.402 367.806 208.65 325.054 208.65 272.504C208.65 219.953 251.402 177.201 303.952 177.201C356.503 177.201 399.255 219.953 399.255 272.504C399.255 325.054 356.503 367.806 303.952 367.806ZM303.952 177.736C251.696 177.736 209.174 220.257 209.174 272.514C209.174 324.771 251.696 367.292 303.952 367.292C356.209 367.292 398.73 324.782 398.73 272.514C398.73 220.247 356.22 177.736 303.952 177.736Z" fill="#5A9678"></path><g data-id="svg-windmill" style="translate: none; rotate: none; scale: none; transform-origin: 0px 0px;" data-svg-origin="315 255.57101440429688" transform="matrix(0.95929,-0.28242,0.28242,0.95929,-59.35472,99.3666)"><path d="M126.913 272.808H93.0993C60.9855 272.808 34.8623 246.685 34.8623 214.571V191.585H35.9114V214.571C35.9114 246.108 61.5626 271.759 93.0993 271.759H126.913V272.808Z" fill="white"></path><path d="M630 408.334H628.951V369.643C628.951 316.368 585.611 273.029 532.337 273.029H475.432V271.979H532.337C586.188 271.979 630 315.791 630 369.643V408.334Z" fill="white"></path><path d="M70.8684 138.237C70.8684 157.803 55.0057 173.676 35.429 173.676C15.8523 173.676 0 157.813 0 138.237C0 118.66 15.8628 102.808 35.4395 102.808C55.0161 102.808 70.8789 118.67 70.8789 138.247" fill="#A1E5BD"></path></g><g data-id="svg-button" style="translate: none; rotate: none; scale: none; transform-origin: 0px 0px;" data-svg-origin="302.80899810791016 272.5770034790039" transform="matrix(1.0314,0,0,1.0314,-9.5082,-8.55892)"><path d="M355.444 297.074H250.174C243.743 297.074 238.54 291.86 238.54 285.439V259.715C238.54 253.284 243.754 248.08 250.174 248.08H355.444C361.875 248.08 367.078 253.294 367.078 259.715V285.439C367.078 291.871 361.864 297.074 355.444 297.074Z" fill="#304756"></path><g style="mix-blend-mode:multiply" opacity="0.07"><path d="M355.444 297.074H250.174C243.743 297.074 238.54 291.86 238.54 285.439V271.715C260.5 271.715 346.5 271.715 367.078 271.715V285.439C367.078 291.871 361.864 297.074 355.444 297.074Z" fill="black"></path></g><path d="M276.633 280.152C274.818 281.495 272.489 282.261 268.943 282.261H262.564V259.936H268.943C272.479 259.936 274.808 260.701 276.633 262.044C279.371 264.09 281.071 267.405 281.071 271.098C281.071 274.791 279.382 278.117 276.633 280.152ZM275.647 263.628C274.052 262.38 271.975 261.751 268.859 261.751H264.495V280.435H268.859C271.986 280.435 274.052 279.795 275.647 278.558C277.85 276.837 279.151 274.088 279.151 271.098C279.151 268.108 277.84 265.36 275.647 263.639V263.628Z" fill="white"></path><path d="M292.129 269.146C291.94 269.115 291.363 269.115 291.268 269.115C289.296 269.115 287.471 270.458 286.705 272.336V282.25H284.89V267.709H286.705V269.618C287.376 268.601 289.034 267.384 291.3 267.384C291.552 267.384 292.192 267.415 292.38 267.447L292.129 269.136V269.146Z" fill="white"></path><path d="M307.562 279.9C306.481 281.275 304.404 282.576 301.634 282.576C297.553 282.576 294.332 279.512 294.332 274.99C294.332 270.815 297.175 267.405 301.288 267.405C305.18 267.405 308.044 270.469 308.044 274.518C308.044 274.644 308.044 274.865 308.013 275.158H296.147C296.273 278.253 298.287 280.866 301.634 280.866C303.543 280.866 305.138 280.1 306.292 278.694L307.562 279.911V279.9ZM296.241 273.49H306.156C305.778 270.941 303.795 269.115 301.277 269.115C298.759 269.115 296.777 270.962 296.241 273.49Z" fill="white"></path><path d="M313.08 261.047C313.972 261.047 314.706 261.781 314.706 262.673C314.706 263.565 313.972 264.268 313.08 264.268C312.188 264.268 311.485 263.565 311.485 262.673C311.485 261.781 312.188 261.047 313.08 261.047ZM312.188 267.709H314.003V282.25H312.188V267.709Z" fill="white"></path><path d="M327.201 261.142C326.855 261.047 326.498 261.016 326.12 261.016C324.945 261.016 323.917 261.456 323.277 262.39C322.858 262.999 322.606 263.702 322.606 265.422V267.72H327.547V269.44H322.606V282.261H320.791V269.44H317.024V267.72H320.791V265.516C320.791 263.282 321.242 262.012 322.008 261.089C322.994 259.914 324.494 259.306 326.152 259.306C326.634 259.306 327.107 259.369 327.558 259.463L327.211 261.152L327.201 261.142Z" fill="white"></path><path d="M341.805 282.261V280.12C340.724 281.589 338.836 282.575 336.58 282.575C335.206 282.575 333.674 282.229 332.247 281.201C330.338 279.858 329.152 277.603 329.152 274.98C329.152 272.556 330.201 270.416 331.859 269.021C333.076 268.035 334.734 267.395 336.486 267.395C338.594 267.395 340.504 268.255 341.815 269.724V267.709H343.567V282.25H341.815L341.805 282.261ZM341.742 272.053C341.102 270.972 339.192 269.115 336.507 269.115C335.3 269.115 334.02 269.535 333.003 270.364C331.723 271.413 330.957 273.102 330.957 274.99C330.957 276.994 331.849 278.788 333.254 279.774C334.178 280.414 335.3 280.855 336.538 280.855C338.678 280.855 340.588 279.648 341.731 277.665V272.053H341.742Z" fill="white"></path></g><g data-id="svg-ring" style="translate: none; rotate: none; scale: none; transform-origin: 0px 0px;" data-svg-origin="301.20410919189453 272.5034942626953" transform="matrix(0.58219,0.81305,-0.81305,0.58219,347.40505,-131.03932)"><path d="M301.235 484.007H300.564V483.483H301.613V484.007H301.225H301.235ZM304.771 483.976V483.451L305.81 483.43V483.955L304.771 483.976ZM297.417 483.976L296.367 483.955V483.43L297.427 483.451V483.976H297.417ZM308.946 483.871L308.925 483.347L309.964 483.305L309.985 483.829L308.936 483.871H308.946ZM293.199 483.871L292.15 483.829L292.171 483.305L293.22 483.347L293.199 483.871ZM313.132 483.693L313.101 483.168L314.15 483.105L314.182 483.63L313.132 483.693ZM289.003 483.672L287.953 483.609L287.985 483.084L289.034 483.147L289.003 483.672ZM317.329 483.409L317.287 482.885L318.336 482.801L318.378 483.326L317.329 483.409ZM284.817 483.388L283.767 483.305L283.809 482.78L284.859 482.864L284.817 483.388ZM321.515 483.053L321.463 482.528L322.501 482.423L322.554 482.948L321.505 483.053H321.515ZM280.631 483.021L279.581 482.916L279.634 482.392L280.673 482.497L280.62 483.021H280.631ZM325.691 482.612L325.628 482.088L326.666 481.962L326.729 482.486L325.68 482.612H325.691ZM276.455 482.581L275.416 482.455L275.479 481.93L276.518 482.056L276.455 482.581ZM329.866 482.088L329.793 481.563L330.831 481.416L330.905 481.941L329.866 482.088ZM272.29 482.046L271.251 481.899L271.325 481.385L272.363 481.532L272.29 482.056V482.046ZM334.021 481.479L333.937 480.965L334.975 480.797L335.059 481.311L334.021 481.479ZM268.125 481.437L267.086 481.269L267.17 480.755L268.209 480.923L268.125 481.437ZM338.165 480.797L338.07 480.283L339.098 480.094L339.193 480.608L338.154 480.797H338.165ZM263.981 480.745L262.953 480.556L263.047 480.042L264.075 480.231L263.981 480.745ZM342.288 480.031L342.183 479.517C342.529 479.454 342.865 479.381 343.211 479.307L343.316 479.821C342.97 479.895 342.634 479.958 342.288 480.031ZM259.847 479.979C259.501 479.916 259.155 479.842 258.819 479.769L258.924 479.255C259.27 479.328 259.606 479.391 259.952 479.465L259.847 479.979ZM346.4 479.181L346.285 478.667L347.313 478.437L347.428 478.951L346.4 479.181ZM255.735 479.119L254.707 478.888L254.822 478.374L255.85 478.604L255.735 479.119ZM350.492 478.248L350.366 477.734L351.384 477.482L351.509 477.996L350.492 478.248ZM251.633 478.174L250.615 477.923L250.741 477.408L251.759 477.66L251.633 478.174ZM354.562 477.23L354.426 476.727L355.444 476.464L355.58 476.968L354.562 477.23ZM247.552 477.157L246.534 476.884L246.67 476.38L247.688 476.643L247.552 477.146V477.157ZM358.612 476.129L358.465 475.625L359.472 475.342L359.619 475.845L358.612 476.129ZM243.492 476.045L242.484 475.761L242.631 475.258L243.638 475.541L243.492 476.045ZM362.641 474.943L362.494 474.439C362.83 474.335 363.165 474.24 363.491 474.135L363.648 474.639C363.312 474.744 362.976 474.849 362.641 474.943ZM239.463 474.859L238.456 474.555L238.613 474.051L239.62 474.356L239.463 474.859ZM366.648 473.684L366.491 473.191L367.488 472.866L367.656 473.359L366.659 473.684H366.648ZM235.434 473.59L234.427 473.264L234.595 472.771L235.592 473.097L235.424 473.59H235.434ZM370.625 472.352L370.457 471.859L371.443 471.512L371.621 472.005L370.635 472.352H370.625ZM231.437 472.247L230.44 471.901L230.619 471.407L231.615 471.754L231.448 472.247H231.437ZM374.58 470.935L374.401 470.442L375.388 470.075L375.576 470.568L374.59 470.935H374.58ZM227.471 470.82L226.485 470.453L226.674 469.96L227.66 470.327L227.482 470.82H227.471ZM378.504 469.446L378.315 468.963L379.29 468.575L379.49 469.057L378.514 469.446H378.504ZM223.527 469.32L222.551 468.932L222.75 468.449L223.726 468.837L223.537 469.32H223.527ZM382.385 467.882L382.186 467.4L383.151 467.001L383.35 467.484L382.385 467.882ZM219.624 467.736C219.299 467.599 218.973 467.463 218.648 467.326L218.858 466.844C219.183 466.98 219.509 467.117 219.823 467.253L219.624 467.736ZM386.236 466.235L386.026 465.753L386.98 465.333L387.19 465.816L386.236 466.235ZM215.753 466.067L214.787 465.637L215.008 465.155L215.973 465.585L215.763 466.067H215.753ZM390.044 464.515L389.824 464.043L390.768 463.602L390.988 464.074L390.044 464.515ZM211.913 464.326L210.958 463.875L211.178 463.403L212.133 463.854L211.913 464.326ZM393.821 462.71L393.59 462.238L394.524 461.777L394.754 462.249L393.81 462.71H393.821ZM208.115 462.5L207.171 462.039L207.402 461.567L208.346 462.028L208.115 462.5ZM397.566 460.832L397.325 460.36L398.248 459.878L398.489 460.339L397.556 460.822L397.566 460.832ZM204.349 460.601L203.415 460.119L203.656 459.657L204.59 460.14L204.349 460.601ZM401.27 458.881L401.018 458.419L401.93 457.926L402.182 458.388L401.259 458.881H401.27ZM200.624 458.64L199.701 458.136L199.953 457.674L200.876 458.178L200.624 458.64ZM404.941 456.867L404.679 456.405L405.592 455.891L405.854 456.342L404.941 456.856V456.867ZM196.942 456.604L196.029 456.08L196.291 455.629L197.204 456.153L196.942 456.604ZM408.571 454.779L408.309 454.328C408.613 454.149 408.907 453.971 409.211 453.793L409.484 454.244C409.18 454.422 408.886 454.6 408.582 454.779H408.571ZM193.312 454.496L192.41 453.961L192.682 453.509L193.585 454.044L193.312 454.496ZM412.17 452.607L411.897 452.156L412.789 451.6L413.062 452.041L412.17 452.597V452.607ZM189.724 452.303L188.832 451.747L189.115 451.306L190.007 451.862L189.734 452.303H189.724ZM415.716 450.362L415.433 449.921L416.314 449.355L416.597 449.795L415.716 450.362ZM186.178 450.047L185.297 449.47L185.58 449.03L186.461 449.607L186.178 450.047ZM419.22 448.054L418.926 447.624C419.21 447.424 419.503 447.236 419.787 447.036L420.08 447.466C419.797 447.666 419.503 447.865 419.21 448.054H419.22ZM182.663 447.718L181.792 447.131L182.086 446.701L182.957 447.288L182.663 447.718ZM422.672 445.683L422.367 445.253L423.217 444.644L423.521 445.074L422.661 445.683H422.672ZM179.212 445.326C178.928 445.127 178.645 444.917 178.351 444.718L178.656 444.288C178.939 444.487 179.222 444.697 179.505 444.896L179.201 445.326H179.212ZM426.081 443.238L425.777 442.819C426.06 442.609 426.344 442.41 426.616 442.2L426.931 442.619C426.648 442.829 426.365 443.039 426.092 443.238H426.081ZM175.802 442.871L174.963 442.242L175.277 441.822L176.117 442.441L175.802 442.861V442.871ZM429.439 440.731L429.124 440.311L429.953 439.671L430.267 440.091L429.439 440.731ZM172.445 440.343L171.616 439.703L171.941 439.294L172.77 439.934L172.455 440.353L172.445 440.343ZM432.754 438.15L432.429 437.741L433.247 437.091L433.572 437.5L432.754 438.15ZM169.14 437.752C168.867 437.531 168.594 437.311 168.322 437.091L168.647 436.681C168.92 436.902 169.192 437.122 169.465 437.342L169.14 437.752ZM436.017 435.506L435.681 435.108C435.954 434.887 436.216 434.667 436.489 434.436L436.824 434.835C436.552 435.055 436.289 435.286 436.017 435.506ZM165.888 435.087L165.08 434.415L165.416 434.017L166.223 434.688L165.888 435.087ZM439.227 432.8L438.881 432.401L439.668 431.719L440.014 432.118L439.216 432.81L439.227 432.8ZM162.688 432.37L161.901 431.677L162.247 431.278L163.034 431.971L162.688 432.37ZM442.374 430.03L442.028 429.642L442.804 428.939L443.161 429.327L442.385 430.03H442.374ZM159.54 429.589L158.764 428.886L159.121 428.498L159.897 429.201L159.54 429.589ZM445.469 427.197L445.112 426.809L445.878 426.096L446.235 426.473L445.469 427.187V427.197ZM156.446 426.746L155.68 426.022L156.036 425.645L156.802 426.358L156.446 426.746ZM448.512 424.302L448.144 423.924L448.889 423.19L449.257 423.567L448.501 424.302H448.512ZM153.414 423.84L152.669 423.106L153.036 422.728L153.781 423.462L153.414 423.84ZM451.491 421.354L451.124 420.986C451.365 420.735 451.617 420.493 451.858 420.242L452.236 420.609C451.995 420.861 451.743 421.112 451.502 421.354H451.491ZM150.434 420.882L149.7 420.126L150.077 419.759L150.812 420.504L150.434 420.871V420.882ZM454.418 418.343L454.041 417.986L454.764 417.22L455.142 417.577L454.418 418.343ZM147.518 417.86L146.794 417.094L147.182 416.738L147.895 417.503L147.518 417.86ZM457.282 415.269L456.894 414.912L457.597 414.136L457.985 414.492L457.282 415.269ZM144.664 414.776L143.961 413.999L144.349 413.653L145.052 414.429L144.664 414.786V414.776ZM460.094 412.132L459.695 411.786L460.388 410.999L460.786 411.345L460.094 412.132ZM141.873 411.639L141.181 410.852L141.579 410.506L142.261 411.293L141.863 411.639H141.873ZM462.843 408.953L462.444 408.617L463.115 407.82L463.514 408.156L462.843 408.964V408.953ZM139.145 408.449L138.474 407.642L138.873 407.306L139.544 408.114L139.145 408.449ZM465.518 405.711L465.109 405.386L465.77 404.568L466.179 404.893L465.518 405.711ZM136.481 405.208L135.82 404.389L136.229 404.064L136.879 404.882L136.47 405.208H136.481ZM468.141 402.417L467.732 402.092L468.372 401.263L468.781 401.588L468.141 402.417ZM133.879 401.913C133.659 401.641 133.449 401.357 133.239 401.085L133.659 400.77C133.868 401.043 134.089 401.326 134.299 401.599L133.889 401.924L133.879 401.913ZM470.69 399.081L470.271 398.766C470.48 398.483 470.69 398.21 470.9 397.927L471.32 398.241C471.11 398.525 470.9 398.808 470.69 399.081ZM131.34 398.577L130.721 397.738L131.141 397.423L131.76 398.262L131.34 398.577ZM473.177 395.692L472.746 395.388L473.355 394.538L473.785 394.842L473.177 395.703V395.692ZM128.875 395.189C128.675 394.905 128.465 394.622 128.266 394.328L128.696 394.024C128.896 394.307 129.095 394.59 129.305 394.874L128.875 395.178V395.189ZM475.59 392.251L475.159 391.957C475.359 391.674 475.558 391.38 475.747 391.086L476.177 391.38C475.978 391.674 475.778 391.957 475.579 392.251H475.59ZM126.472 391.747L125.885 390.877L126.315 390.583L126.902 391.454L126.472 391.747ZM477.94 388.757L477.499 388.464L478.076 387.582L478.517 387.866L477.94 388.747V388.757ZM124.143 388.264C123.954 387.971 123.755 387.677 123.566 387.383L124.007 387.1C124.195 387.393 124.384 387.687 124.573 387.971L124.132 388.254L124.143 388.264ZM480.227 385.222L479.786 384.939L480.342 384.047L480.783 384.33L480.227 385.222ZM121.887 384.729C121.699 384.435 121.52 384.141 121.331 383.837L121.782 383.564C121.961 383.858 122.15 384.152 122.338 384.445L121.898 384.729H121.887ZM482.44 381.634L481.989 381.361C482.168 381.057 482.346 380.763 482.524 380.459L482.975 380.732C482.797 381.036 482.619 381.33 482.43 381.634H482.44ZM119.695 381.151L119.16 380.249L119.611 379.976L120.146 380.878L119.695 381.151ZM484.581 378.004L484.129 377.742L484.654 376.829L485.116 377.091L484.591 378.004H484.581ZM117.575 377.532L117.061 376.619L117.513 376.357L118.027 377.269L117.575 377.532ZM486.637 374.332L486.175 374.08C486.343 373.776 486.511 373.472 486.679 373.157L487.14 373.409C486.973 373.713 486.805 374.028 486.637 374.332ZM115.53 373.87L115.026 372.947L115.488 372.695L115.991 373.608L115.53 373.86V373.87ZM488.63 370.618L488.169 370.377C488.336 370.072 488.494 369.758 488.651 369.443L489.113 369.684C488.955 369.999 488.788 370.303 488.63 370.618ZM113.547 370.177L113.064 369.244L113.526 369.002L114.008 369.926L113.547 370.167V370.177ZM490.55 366.873L490.078 366.642C490.235 366.327 490.393 366.012 490.54 365.698L491.012 365.928C490.854 366.243 490.697 366.558 490.54 366.873H490.55ZM111.648 366.442L111.186 365.509L111.658 365.278L112.12 366.212L111.648 366.442ZM492.386 363.085L491.914 362.865C492.061 362.55 492.218 362.235 492.365 361.91L492.837 362.131C492.69 362.445 492.533 362.771 492.386 363.085ZM109.822 362.676L109.382 361.732L109.854 361.512L110.295 362.456L109.822 362.676ZM494.159 359.266L493.677 359.046L494.107 358.081L494.589 358.291L494.159 359.256V359.266ZM108.081 358.878L107.651 357.924L108.133 357.714L108.563 358.668L108.081 358.889V358.878ZM495.859 355.406L495.376 355.196L495.785 354.231L496.268 354.43L495.859 355.395V355.406ZM106.413 355.038L106.004 354.073L106.486 353.874L106.895 354.839L106.413 355.049V355.038ZM497.474 351.513L496.992 351.314L497.38 350.338L497.863 350.527L497.474 351.503V351.513ZM104.818 351.178L104.43 350.202L104.913 350.003L105.301 350.978L104.818 351.178ZM499.006 347.59L498.513 347.401L498.88 346.415L499.373 346.603L499.006 347.59ZM103.297 347.264C103.171 346.939 103.045 346.614 102.93 346.278L103.423 346.1C103.549 346.425 103.664 346.75 103.79 347.076L103.297 347.264ZM500.464 343.634L499.971 343.456L500.318 342.459L500.811 342.638L500.464 343.634ZM101.849 343.32L101.503 342.334L101.996 342.155L102.342 343.141L101.849 343.32ZM501.849 339.648L501.356 339.48L501.692 338.483L502.185 338.651L501.849 339.648ZM100.485 339.344L100.16 338.347L100.653 338.179L100.978 339.176L100.485 339.344ZM503.14 335.63L502.636 335.472L502.951 334.465L503.454 334.622L503.14 335.63ZM99.1948 335.346L98.8905 334.339L99.3941 334.182L99.6984 335.189L99.1948 335.346ZM504.357 331.611L503.853 331.465L504.147 330.457L504.65 330.604L504.357 331.611ZM97.9883 331.328L97.6945 330.321L98.1981 330.174L98.4919 331.181L97.9883 331.328ZM505.49 327.562L504.986 327.425L505.259 326.418L505.762 326.555L505.49 327.572V327.562ZM96.8657 327.279L96.593 326.261L97.0965 326.125L97.3588 327.142L96.8552 327.279H96.8657ZM506.539 323.502L506.035 323.376C506.119 323.04 506.203 322.694 506.287 322.358L506.801 322.484C506.717 322.83 506.633 323.166 506.549 323.502H506.539ZM95.8271 323.208L95.5753 322.19L96.0894 322.064L96.3412 323.082L95.8271 323.208ZM507.514 319.41L507 319.295L507.231 318.267L507.745 318.382L507.514 319.41ZM94.8724 319.116C94.7989 318.77 94.715 318.434 94.6416 318.088L95.1556 317.973C95.2291 318.319 95.3025 318.655 95.3865 319.001L94.8724 319.116ZM508.406 315.298L507.892 315.193L508.102 314.165L508.616 314.269L508.406 315.298ZM93.9911 315.004L93.7813 313.976L94.2954 313.871L94.5052 314.899L93.9911 315.004ZM509.204 311.175L508.69 311.08C508.752 310.734 508.815 310.398 508.878 310.052L509.392 310.146C509.329 310.493 509.267 310.839 509.204 311.185V311.175ZM93.1938 310.881L93.0049 309.842L93.519 309.748L93.7079 310.776L93.1938 310.87V310.881ZM509.927 307.03L509.413 306.947L509.581 305.908L510.095 305.992L509.927 307.03ZM92.4804 306.737L92.3125 305.698L92.8266 305.614L92.9944 306.653L92.4804 306.737ZM510.567 302.876L510.053 302.802L510.2 301.764L510.725 301.837L510.578 302.876H510.567ZM91.8404 302.582L91.6935 301.544L92.2181 301.47L92.365 302.509L91.8509 302.582H91.8404ZM511.113 298.711L510.588 298.648L510.714 297.609L511.239 297.672L511.113 298.711ZM91.2844 298.417L91.1585 297.379L91.683 297.316L91.8089 298.354L91.2844 298.417ZM511.585 294.535L511.061 294.483C511.092 294.137 511.134 293.79 511.165 293.444L511.69 293.497C511.659 293.843 511.617 294.2 511.585 294.546V294.535ZM90.8123 294.242L90.7074 293.193L91.2319 293.14L91.3368 294.179L90.8123 294.231V294.242ZM511.973 290.349L511.449 290.307L511.533 289.258L512.057 289.3L511.973 290.349ZM90.4241 290.056L90.3402 289.006L90.8647 288.965L90.9487 290.014L90.4241 290.056ZM512.278 286.163L511.753 286.132L511.816 285.083L512.34 285.114L512.278 286.163ZM90.1198 285.87L90.0569 284.82L90.5815 284.789L90.6444 285.838L90.1198 285.87ZM512.508 281.967L511.984 281.946L512.026 280.897L512.55 280.918L512.508 281.967ZM89.8995 281.673L89.8576 280.624L90.3821 280.603L90.4241 281.642L89.8995 281.663V281.673ZM512.645 277.77H512.12L512.141 276.711H512.666L512.645 277.77ZM89.7631 277.487L89.7422 276.438H90.2667L90.2877 277.477H89.7631V277.487ZM512.708 273.584H512.183V272.535H512.708V273.584ZM89.7002 273.301V272.252H90.2248V273.301H89.7002ZM512.183 272.063V271.014H512.708V272.063H512.183ZM90.2562 269.115H89.7317L89.7527 268.055H90.2772L90.2562 269.115ZM512.131 267.877L512.11 266.828H512.634L512.655 267.867H512.131V267.877ZM90.3611 264.94L89.8366 264.919L89.8785 263.869L90.4031 263.89L90.3611 264.94ZM512.005 263.712L511.963 262.663L512.487 262.642L512.529 263.691L512.005 263.712ZM90.5605 260.754L90.0359 260.722L90.0989 259.673L90.6234 259.704L90.5605 260.754ZM511.795 259.526L511.732 258.477L512.257 258.445L512.319 259.495L511.795 259.526ZM90.8333 256.568L90.3087 256.526L90.3926 255.476L90.9172 255.518L90.8333 256.568ZM511.501 255.34L511.417 254.291L511.942 254.249L512.026 255.298L511.501 255.34ZM91.19 252.392L90.6654 252.34L90.7703 251.29L91.2949 251.343L91.19 252.382V252.392ZM511.123 251.165L511.019 250.126L511.543 250.073L511.648 251.123L511.123 251.175V251.165ZM91.6201 248.216L91.0955 248.154L91.2214 247.115L91.746 247.178L91.6201 248.216ZM510.662 246.999L510.536 245.961L511.061 245.898L511.186 246.937L510.662 246.999ZM92.1447 244.062L91.6201 243.988L91.767 242.95L92.2915 243.023L92.1447 244.062ZM510.116 242.845L509.969 241.806L510.484 241.733L510.63 242.772L510.116 242.845ZM92.7427 239.918L92.2286 239.834L92.3964 238.795L92.9105 238.879L92.7427 239.918ZM509.487 238.701L509.319 237.662L509.833 237.578L510.001 238.617L509.487 238.701ZM93.4246 235.774L92.9105 235.679L93.0889 234.641L93.6029 234.735L93.4246 235.763V235.774ZM508.784 234.567C508.721 234.221 508.658 233.875 508.595 233.539L509.109 233.445C509.172 233.791 509.235 234.137 509.298 234.473L508.784 234.567ZM94.1905 231.651L93.6764 231.546L93.8757 230.518L94.3898 230.623L94.1905 231.651ZM507.987 230.444L507.777 229.416L508.291 229.311L508.501 230.339L507.987 230.444ZM95.0402 227.549L94.5262 227.433C94.5996 227.087 94.673 226.751 94.7465 226.405L95.2606 226.521C95.1871 226.856 95.1137 227.202 95.0402 227.538V227.549ZM507.116 226.353L506.885 225.335L507.399 225.22L507.63 226.248L507.116 226.363V226.353ZM95.974 223.468L95.4599 223.342L95.7012 222.324L96.2153 222.45L95.974 223.468ZM506.172 222.272C506.088 221.936 506.004 221.59 505.92 221.254L506.423 221.128C506.507 221.464 506.591 221.81 506.675 222.146L506.161 222.272H506.172ZM96.9916 219.397L96.488 219.261L96.7503 218.243L97.2539 218.379L96.9916 219.397ZM505.133 218.211L504.86 217.194L505.364 217.057L505.637 218.075L505.133 218.211ZM98.0827 215.358L97.5791 215.221C97.6736 214.886 97.768 214.55 97.8624 214.214L98.366 214.361C98.2716 214.697 98.1771 215.033 98.0827 215.368V215.358ZM504.021 214.172L503.727 213.165L504.231 213.018L504.524 214.025L504.021 214.172ZM99.2577 211.329L98.7541 211.182L99.0584 210.175L99.562 210.333L99.2577 211.34V211.329ZM502.825 210.154L502.51 209.147L503.014 208.99L503.328 209.997L502.825 210.154ZM100.517 207.311L100.024 207.154L100.349 206.147L100.842 206.314L100.517 207.311ZM501.545 206.157L501.209 205.16L501.702 204.992L502.038 205.989L501.545 206.157ZM101.86 203.314L101.366 203.146C101.482 202.81 101.597 202.485 101.713 202.149L102.206 202.328C102.09 202.663 101.975 202.989 101.86 203.324V203.314ZM500.192 202.191L499.835 201.205L500.328 201.027L500.685 202.013L500.192 202.191ZM103.276 199.359L102.783 199.18L103.15 198.194L103.643 198.383L103.276 199.369V199.359ZM498.754 198.257L498.387 197.281L498.88 197.093L499.258 198.079L498.765 198.268L498.754 198.257ZM104.776 195.435L104.294 195.246C104.419 194.921 104.556 194.596 104.682 194.26L105.164 194.459C105.038 194.785 104.902 195.11 104.776 195.435ZM497.233 194.354L496.845 193.379L497.327 193.179L497.716 194.155L497.233 194.354ZM106.35 191.543L105.867 191.343L106.276 190.368L106.759 190.567L106.35 191.543ZM495.649 190.494C495.512 190.179 495.376 189.854 495.24 189.539L495.722 189.329C495.859 189.654 495.995 189.969 496.131 190.294L495.649 190.494ZM108.007 187.682L107.525 187.472L107.955 186.507L108.438 186.717L108.007 187.682ZM493.991 186.675L493.561 185.72L494.044 185.5L494.474 186.454L493.991 186.675ZM109.738 183.853L109.266 183.632L109.707 182.678L110.179 182.898L109.738 183.853ZM492.25 182.877L491.799 181.933L492.271 181.712L492.722 182.657L492.25 182.877ZM111.543 180.055L111.071 179.824C111.228 179.509 111.375 179.194 111.532 178.88L112.005 179.111C111.847 179.425 111.7 179.74 111.543 180.055ZM490.435 179.111L489.973 178.177L490.445 177.946L490.907 178.88L490.435 179.111ZM113.421 176.299L112.949 176.058L113.431 175.124L113.893 175.365L113.41 176.299H113.421ZM488.536 175.386L488.053 174.463L488.515 174.222L488.997 175.145L488.536 175.386ZM115.372 172.585L114.911 172.333L115.414 171.41L115.876 171.662L115.372 172.585ZM486.574 171.704L486.07 170.791L486.532 170.539L487.036 171.452L486.574 171.704ZM117.408 168.913L116.946 168.651C117.114 168.347 117.292 168.042 117.471 167.738L117.922 168C117.743 168.305 117.575 168.609 117.408 168.913ZM484.539 168.053L484.014 167.151L484.465 166.888L484.99 167.801L484.539 168.063V168.053ZM119.506 165.273L119.055 165.01L119.59 164.108L120.041 164.381L119.506 165.283V165.273ZM482.43 164.444L481.895 163.552L482.346 163.279L482.881 164.171L482.43 164.444ZM121.678 161.685L121.226 161.412L121.782 160.52L122.223 160.803L121.667 161.695L121.678 161.685ZM480.248 160.877L479.692 159.995L480.132 159.712L480.688 160.594L480.248 160.877ZM123.923 158.139L123.482 157.855L124.059 156.974L124.5 157.257L123.933 158.139H123.923ZM477.992 157.352C477.803 157.058 477.614 156.764 477.415 156.481L477.856 156.187C478.045 156.481 478.244 156.775 478.433 157.058L477.992 157.341V157.352ZM126.231 154.634L125.801 154.341C126 154.047 126.189 153.764 126.388 153.47L126.818 153.764C126.619 154.047 126.42 154.341 126.231 154.634ZM475.674 153.869L475.086 153.008L475.516 152.715L476.114 153.575L475.684 153.869H475.674ZM128.623 151.183L128.193 150.879L128.801 150.018L129.231 150.323L128.623 151.183ZM473.292 150.438C473.093 150.155 472.893 149.871 472.684 149.588L473.114 149.284C473.313 149.567 473.523 149.85 473.722 150.134L473.292 150.438ZM131.078 147.773L130.658 147.458C130.868 147.175 131.078 146.892 131.288 146.609L131.707 146.923C131.497 147.207 131.288 147.49 131.088 147.763L131.078 147.773ZM470.837 147.049L470.208 146.21L470.627 145.895L471.257 146.735L470.837 147.049ZM133.596 144.416L133.176 144.101L133.816 143.272L134.225 143.598L133.585 144.426L133.596 144.416ZM468.309 143.713C468.099 143.44 467.879 143.157 467.669 142.884L468.078 142.559C468.298 142.832 468.508 143.115 468.718 143.388L468.298 143.703L468.309 143.713ZM136.176 141.111L135.767 140.786L136.428 139.968L136.837 140.293L136.187 141.111H136.176ZM465.717 140.419L465.056 139.6L465.466 139.275L466.126 140.094L465.717 140.419ZM138.82 137.848L138.422 137.513L139.093 136.705L139.492 137.041L138.82 137.848ZM463.063 137.177C462.843 136.904 462.612 136.642 462.392 136.38L462.79 136.044C463.021 136.306 463.241 136.579 463.462 136.852L463.063 137.188V137.177ZM141.537 134.649L141.139 134.302C141.37 134.04 141.6 133.778 141.831 133.505L142.23 133.851C141.999 134.114 141.768 134.376 141.537 134.638V134.649ZM460.346 133.988L459.653 133.201L460.052 132.855L460.744 133.641L460.346 133.988ZM144.307 131.501L143.919 131.155C144.15 130.893 144.391 130.63 144.622 130.379L145.01 130.735C144.779 130.998 144.538 131.249 144.307 131.512V131.501ZM457.566 130.861L456.863 130.085L457.251 129.728L457.954 130.505L457.566 130.861ZM147.14 128.417L146.752 128.06C146.993 127.808 147.234 127.546 147.476 127.294L147.853 127.651C147.612 127.903 147.371 128.155 147.14 128.417ZM454.722 127.787L453.999 127.021L454.376 126.665L455.1 127.431L454.722 127.787ZM150.035 125.385L149.658 125.018L150.392 124.262L150.77 124.629L150.035 125.374V125.385ZM451.816 124.766C451.575 124.514 451.323 124.273 451.082 124.021L451.46 123.654C451.701 123.906 451.953 124.147 452.194 124.399L451.816 124.766ZM152.983 122.405L152.616 122.028L153.361 121.293L153.728 121.671L152.983 122.405ZM448.847 121.797L448.103 121.062L448.47 120.685L449.225 121.419L448.858 121.797H448.847ZM155.984 119.489L155.627 119.111L156.393 118.387L156.75 118.775L155.984 119.489ZM445.815 118.901L445.05 118.188L445.406 117.8L446.172 118.513L445.815 118.891V118.901ZM159.047 116.646L158.691 116.257L159.467 115.555L159.813 115.943L159.037 116.646H159.047ZM442.731 116.058L441.955 115.355L442.301 114.967L443.077 115.67L442.72 116.058H442.731ZM162.163 113.844L161.817 113.446C162.079 113.215 162.342 112.984 162.604 112.753L162.95 113.152C162.688 113.383 162.426 113.614 162.163 113.834V113.844ZM439.594 113.278L438.807 112.596L439.153 112.197L439.951 112.89L439.605 113.288L439.594 113.278ZM165.332 111.117L164.996 110.718C165.258 110.498 165.531 110.267 165.804 110.047L166.139 110.445C165.867 110.666 165.604 110.896 165.342 111.117H165.332ZM436.394 110.55L435.586 109.879L435.922 109.48L436.73 110.152L436.394 110.55ZM168.552 108.452L168.227 108.043L169.046 107.382L169.371 107.791L168.552 108.441V108.452ZM433.152 107.896C432.88 107.676 432.607 107.455 432.334 107.245L432.659 106.836C432.932 107.057 433.205 107.277 433.478 107.487L433.152 107.896ZM171.836 105.85L171.511 105.441L172.34 104.801L172.655 105.221L171.826 105.861L171.836 105.85ZM429.858 105.305L429.029 104.665L429.344 104.245L430.173 104.885L429.858 105.305ZM175.172 103.311L174.858 102.892C175.141 102.682 175.424 102.472 175.697 102.262L176.012 102.682C175.729 102.892 175.456 103.091 175.172 103.301V103.311ZM426.512 102.776L425.672 102.157L425.976 101.738L426.826 102.357L426.512 102.776ZM178.551 100.846L178.246 100.416L179.096 99.8072L179.4 100.237L178.551 100.846ZM423.112 100.321C422.829 100.122 422.546 99.9226 422.252 99.7127L422.556 99.2826C422.84 99.4819 423.133 99.6813 423.417 99.8911L423.112 100.321ZM181.971 98.4433L181.677 98.0132C181.971 97.8138 182.254 97.6145 182.548 97.4256L182.842 97.8558C182.548 98.0551 182.265 98.244 181.981 98.4433H181.971ZM419.671 97.9292L418.8 97.3417L419.094 96.9116L419.965 97.4991L419.671 97.9292ZM185.443 96.1142L185.16 95.6736L186.031 95.0966L186.314 95.5372L185.443 96.1142ZM416.178 95.6002L415.296 95.0336L415.58 94.593L416.461 95.1595L416.178 95.6002ZM188.968 93.8481L188.685 93.4075L189.566 92.8515L189.85 93.2921L188.968 93.8481ZM412.642 93.3445C412.348 93.1557 412.044 92.9773 411.75 92.7885L412.023 92.3374C412.327 92.5157 412.621 92.7046 412.915 92.8934L412.632 93.3341L412.642 93.3445ZM192.525 91.6555L192.252 91.2043L193.154 90.6693L193.427 91.1204L192.535 91.6555H192.525ZM409.054 91.1624L408.152 90.6273L408.414 90.1762L409.316 90.7112L409.044 91.1624H409.054ZM196.124 89.5362L195.861 89.0851C196.165 88.9067 196.47 88.7389 196.774 88.5605L197.036 89.0221C196.732 89.19 196.428 89.3684 196.134 89.5362H196.124ZM405.424 89.0431L404.511 88.5291L404.774 88.0674L405.686 88.5815L405.424 89.0431ZM199.764 87.4799L199.512 87.0183L200.435 86.5147L200.687 86.9764L199.774 87.4799H199.764ZM401.752 86.9973L400.829 86.4938L401.081 86.0321L402.004 86.5357L401.752 86.9973ZM203.446 85.5076L203.205 85.046C203.509 84.8886 203.824 84.7207 204.128 84.5634L204.37 85.025C204.065 85.1823 203.751 85.3502 203.446 85.5076ZM398.038 85.0355L397.105 84.5529L397.346 84.0808L398.28 84.5634L398.038 85.0355ZM207.16 83.6087L206.93 83.1366C207.244 82.9792 207.548 82.8218 207.863 82.6749L208.094 83.147C207.779 83.3044 207.475 83.4513 207.16 83.6087ZM394.282 83.147L393.338 82.6854L393.569 82.2133L394.513 82.6749L394.282 83.147ZM210.916 81.7832L210.696 81.3111L211.64 80.8599L211.86 81.3321L210.916 81.7727V81.7832ZM390.495 81.3216L389.54 80.8809L389.761 80.4088L390.715 80.8495L390.495 81.3216ZM214.704 80.0311L214.483 79.5485L215.438 79.1184L215.648 79.601L214.693 80.0311H214.704ZM386.676 79.58C386.361 79.4331 386.036 79.2968 385.711 79.1604L385.921 78.6778C386.246 78.8142 386.561 78.961 386.886 79.1079L386.676 79.5905V79.58ZM218.533 78.3525L218.323 77.8699L219.288 77.4608L219.498 77.9434L218.533 78.3525ZM382.815 77.9119L381.85 77.5132L382.05 77.0306L383.025 77.4398L382.826 77.9224L382.815 77.9119ZM222.383 76.7579L222.184 76.2753L223.159 75.8871L223.359 76.3697L222.383 76.7579ZM378.923 76.3277L377.947 75.9395L378.136 75.457L379.112 75.8451L378.923 76.3277ZM226.286 75.2366L226.097 74.7435L227.083 74.3764L227.272 74.8694L226.286 75.2366ZM374.999 74.817C374.674 74.6911 374.338 74.5757 374.013 74.4498L374.192 73.9567C374.527 74.0826 374.853 74.198 375.178 74.3239L374.989 74.817H374.999ZM230.22 73.7784L230.042 73.2853C230.367 73.1699 230.703 73.0545 231.028 72.9391L231.206 73.4321C230.881 73.5475 230.545 73.6629 230.22 73.7784ZM371.044 73.3797L370.048 73.0335L370.215 72.5404L371.212 72.8866L371.034 73.3797H371.044ZM234.186 72.404L234.018 71.9109L235.015 71.5752L235.182 72.0683L234.186 72.404ZM367.068 72.0263L366.071 71.7011L366.229 71.1975L367.236 71.5227L367.068 72.0158V72.0263ZM238.172 71.1136L238.015 70.61L239.022 70.2953L239.18 70.7988L238.183 71.1031L238.172 71.1136ZM363.05 70.7464L362.043 70.4421L362.19 69.9386L363.197 70.2428L363.05 70.7464ZM242.18 69.8966L242.033 69.393L243.04 69.0992L243.187 69.6028L242.18 69.8966ZM359.021 69.5609L358.014 69.2776L358.15 68.774L359.158 69.0573L359.021 69.5609ZM246.209 68.774L246.072 68.2704C246.408 68.176 246.744 68.0921 247.09 67.9977L247.226 68.5012C246.891 68.5852 246.555 68.6796 246.219 68.774H246.209ZM354.972 68.4593L353.954 68.197L354.08 67.6934L355.098 67.9557L354.961 68.4593H354.972ZM250.269 67.7249L250.143 67.2108L251.161 66.959L251.287 67.4731L250.269 67.7249ZM350.912 67.4311L349.894 67.1898L350.02 66.6758L351.037 66.9171L350.912 67.4311ZM254.35 66.7597L254.235 66.2456L255.263 66.0148L255.378 66.5289L254.35 66.7597ZM346.83 66.4869L345.802 66.2666L345.918 65.7525L346.946 65.9729L346.83 66.4869ZM258.442 65.8679L258.337 65.3539C258.683 65.2804 259.019 65.2175 259.365 65.144L259.47 65.6581C259.124 65.7316 258.788 65.7945 258.442 65.8679ZM342.728 65.6266C342.382 65.5532 342.046 65.4903 341.7 65.4273L341.805 64.9132C342.151 64.9762 342.498 65.0496 342.833 65.1126L342.728 65.6266ZM262.554 65.0706L262.46 64.5565L263.488 64.3677L263.582 64.8818L262.554 65.0706ZM338.605 64.8503L337.577 64.6719L337.672 64.1579L338.71 64.3362L338.616 64.8503H338.605ZM266.677 64.3467L266.593 63.8326L267.632 63.6648L267.716 64.1789L266.677 64.3467ZM334.472 64.1474L333.433 63.99L333.517 63.4759L334.556 63.6333L334.472 64.1474ZM270.821 63.7067L270.748 63.1927L271.786 63.0458L271.86 63.5704L270.821 63.7172V63.7067ZM330.328 63.5284L329.289 63.392L329.362 62.8674L330.401 63.0038L330.328 63.5284ZM274.976 63.1402L274.913 62.6157L275.951 62.4898L276.014 63.0143L274.976 63.1402ZM326.173 62.9933L325.134 62.8779L325.197 62.3534L326.236 62.4688L326.173 62.9933ZM279.141 62.6681L279.088 62.1435L280.137 62.0386L280.19 62.5632L279.141 62.6681ZM322.008 62.5422L320.969 62.4478L321.022 61.9232L322.071 62.0177L322.019 62.5422H322.008ZM283.316 62.2694L283.274 61.7449L284.324 61.6609L284.365 62.1855L283.316 62.2694ZM317.843 62.175L316.794 62.0911L316.836 61.5665L317.885 61.6505L317.843 62.175ZM287.502 61.9652L287.471 61.4406L288.52 61.3777L288.551 61.9022L287.502 61.9652ZM313.657 61.8918L312.608 61.8288L312.639 61.3042L313.689 61.3672L313.657 61.8918ZM291.678 61.7449L291.657 61.2203L292.706 61.1784L292.727 61.7029L291.678 61.7449ZM309.471 61.6924L308.422 61.6505L308.443 61.1259L309.492 61.1679L309.471 61.6924ZM295.853 61.598V61.0629L296.892 61.042V61.5665L295.853 61.5875V61.598ZM305.275 61.5665L304.225 61.5455V61.021L305.285 61.042V61.5665H305.275ZM300.029 61.5351V61H301.078V61.5246H300.029V61.5351Z" fill="white" style="opacity: 1;"></path><path d="M301.236 403.508C300.837 403.508 300.428 403.508 300.029 403.508V402.984C302.106 403.005 304.215 402.973 306.282 402.889L306.303 403.414C304.624 403.477 302.925 403.508 301.236 403.508ZM293.766 403.299C291.689 403.183 289.58 403.015 287.513 402.795L287.565 402.27C289.622 402.491 291.72 402.659 293.787 402.774L293.755 403.299H293.766ZM312.566 403.026L312.524 402.501C314.612 402.323 316.7 402.092 318.735 401.819L318.808 402.344C316.763 402.617 314.664 402.847 312.577 403.026H312.566ZM281.292 401.998C279.235 401.683 277.158 401.316 275.112 400.907L275.217 400.392C277.242 400.802 279.319 401.169 281.365 401.484L281.281 401.998H281.292ZM324.998 401.358L324.904 400.844C326.95 400.466 329.006 400.036 331.02 399.574L331.136 400.088C329.111 400.56 327.055 400.99 324.998 401.368V401.358ZM269.006 399.511C266.992 399.008 264.967 398.431 262.963 397.822L263.121 397.319C265.114 397.927 267.139 398.494 269.143 398.997L269.017 399.501L269.006 399.511ZM337.21 398.504L337.063 398C339.057 397.434 341.06 396.804 343.033 396.144L343.201 396.637C341.228 397.308 339.203 397.927 337.21 398.504ZM256.994 395.839C255.032 395.136 253.06 394.371 251.129 393.573L251.329 393.091C253.249 393.888 255.21 394.643 257.172 395.346L256.994 395.839ZM349.097 394.486L348.908 394.003C350.849 393.237 352.779 392.43 354.657 391.59L354.877 392.073C352.999 392.923 351.059 393.731 349.107 394.496L349.097 394.486ZM245.391 391.024C243.492 390.132 241.603 389.177 239.778 388.202L240.019 387.74C241.845 388.716 243.722 389.66 245.611 390.541L245.391 391.013V391.024ZM360.511 389.356L360.27 388.884C362.116 387.95 363.963 386.953 365.757 385.925L366.019 386.376C364.215 387.404 362.358 388.411 360.501 389.345L360.511 389.356ZM234.301 385.128C232.497 384.058 230.713 382.925 228.982 381.781L229.276 381.34C230.997 382.473 232.77 383.596 234.574 384.666L234.301 385.117V385.128ZM371.391 383.155L371.107 382.715C372.849 381.613 374.601 380.438 376.3 379.242L376.605 379.672C374.895 380.879 373.143 382.043 371.401 383.155H371.391ZM223.831 378.193C222.163 376.966 220.484 375.675 218.858 374.364L219.183 373.955C220.799 375.266 222.467 376.546 224.135 377.773L223.831 378.193ZM381.63 375.937L381.305 375.528C382.941 374.259 384.568 372.926 386.141 371.573L386.488 371.972C384.903 373.325 383.277 374.657 381.63 375.937ZM214.074 370.293C212.511 368.908 210.969 367.46 209.489 366.002L209.857 365.624C211.336 367.072 212.868 368.51 214.42 369.894L214.074 370.283V370.293ZM391.146 367.775L390.789 367.397C392.3 365.971 393.8 364.491 395.227 363.002L395.604 363.369C394.167 364.859 392.667 366.348 391.146 367.786V367.775ZM205.125 361.512C203.709 359.991 202.313 358.406 200.971 356.812L201.369 356.476C202.702 358.06 204.097 359.634 205.503 361.155L205.115 361.512H205.125ZM399.853 358.742L399.455 358.396C400.829 356.822 402.182 355.207 403.462 353.591L403.872 353.916C402.592 355.532 401.238 357.158 399.853 358.732V358.742ZM197.057 351.923C195.788 350.265 194.55 348.555 193.375 346.856L193.805 346.551C194.98 348.251 196.218 349.951 197.477 351.608L197.057 351.923ZM407.659 348.922L407.229 348.618C408.446 346.929 409.631 345.198 410.754 343.456L411.194 343.74C410.061 345.492 408.865 347.233 407.648 348.922H407.659ZM189.934 341.62C188.843 339.868 187.773 338.053 186.755 336.228L187.217 335.976C188.234 337.791 189.294 339.606 190.385 341.348L189.944 341.62H189.934ZM414.489 338.4L414.038 338.137C415.087 336.343 416.104 334.497 417.059 332.661L417.521 332.902C416.555 334.749 415.538 336.606 414.489 338.4ZM183.828 330.689C182.905 328.832 182.013 326.922 181.184 325.013L181.667 324.803C182.495 326.702 183.387 328.601 184.3 330.458L183.828 330.689ZM420.28 327.258L419.808 327.038C420.679 325.16 421.507 323.229 422.294 321.288L422.777 321.488C421.99 323.429 421.151 325.369 420.28 327.258ZM178.803 319.222C178.058 317.27 177.355 315.287 176.704 313.315L177.197 313.147C177.837 315.109 178.54 317.092 179.285 319.033L178.792 319.222H178.803ZM424.98 315.602L424.487 315.434C425.169 313.472 425.819 311.469 426.396 309.486L426.9 309.633C426.312 311.626 425.662 313.63 424.98 315.602ZM174.9 307.304C174.344 305.289 173.84 303.243 173.379 301.219L173.893 301.103C174.344 303.128 174.858 305.163 175.403 307.167L174.9 307.304ZM428.526 303.569L428.012 303.443C428.505 301.428 428.946 299.372 429.344 297.337L429.858 297.431C429.46 299.477 429.019 301.533 428.526 303.558V303.569ZM172.162 295.06C171.805 293.025 171.501 290.937 171.238 288.86L171.763 288.797C172.025 290.874 172.329 292.952 172.686 294.976L172.172 295.071L172.162 295.06ZM430.897 291.252L430.383 291.178C430.677 289.133 430.928 287.045 431.117 284.978L431.642 285.031C431.443 287.118 431.191 289.206 430.897 291.262V291.252ZM170.609 282.618C170.452 280.551 170.336 278.442 170.284 276.354H170.808C170.871 278.421 170.976 280.519 171.133 282.576L170.609 282.618ZM432.083 278.767L431.558 278.746C431.652 276.69 431.705 274.581 431.705 272.504H432.229C432.229 274.592 432.177 276.701 432.083 278.778V278.767ZM431.694 271.067C431.673 268.979 431.6 266.881 431.474 264.824L431.999 264.793C432.114 266.86 432.187 268.968 432.219 271.067H431.694ZM170.766 270.102H170.242C170.284 268.003 170.368 265.895 170.504 263.828L171.029 263.859C170.892 265.916 170.808 268.014 170.766 270.102ZM430.97 258.603C430.75 256.526 430.477 254.449 430.163 252.413L430.677 252.329C430.991 254.375 431.264 256.463 431.485 258.551L430.96 258.603H430.97ZM171.585 257.638L171.06 257.575C171.291 255.498 171.585 253.41 171.92 251.364L172.434 251.448C172.099 253.483 171.815 255.571 171.585 257.638ZM429.061 246.265C428.641 244.23 428.18 242.184 427.666 240.18L428.169 240.055C428.683 242.069 429.155 244.125 429.575 246.171L429.061 246.276V246.265ZM173.578 245.311L173.064 245.206C173.494 243.17 173.987 241.125 174.512 239.1L175.015 239.236C174.491 241.251 173.998 243.296 173.567 245.311H173.578ZM425.966 234.159C425.358 232.176 424.697 230.182 423.994 228.231L424.487 228.053C425.19 230.014 425.861 232.018 426.47 234.001L425.966 234.159ZM176.757 233.225L176.253 233.067C176.883 231.074 177.565 229.07 178.288 227.119L178.782 227.297C178.068 229.238 177.386 231.231 176.757 233.225ZM421.738 222.419C420.941 220.509 420.091 218.589 419.21 216.722L419.682 216.502C420.574 218.38 421.423 220.3 422.221 222.219L421.738 222.419ZM181.09 221.475L180.607 221.265C181.425 219.345 182.296 217.414 183.209 215.537L183.681 215.767C182.779 217.635 181.908 219.555 181.09 221.464V221.475ZM416.398 211.151C415.422 209.326 414.394 207.5 413.324 205.717L413.775 205.444C414.845 207.227 415.874 209.063 416.86 210.899L416.398 211.151ZM186.535 210.217L186.073 209.966C187.07 208.13 188.129 206.304 189.21 204.521L189.661 204.793C188.58 206.566 187.531 208.392 186.535 210.217ZM409.998 200.44C408.844 198.709 407.648 196.988 406.421 195.32L406.841 195.005C408.068 196.673 409.275 198.404 410.429 200.146L409.988 200.44H409.998ZM193.029 199.527L192.599 199.233C193.763 197.513 194.98 195.792 196.239 194.113L196.659 194.428C195.41 196.096 194.193 197.817 193.039 199.527H193.029ZM402.602 190.378C401.291 188.763 399.927 187.168 398.552 185.626L398.941 185.28C400.325 186.832 401.689 188.438 403.011 190.053L402.602 190.378ZM200.509 189.518L200.11 189.182C201.443 187.567 202.828 185.972 204.223 184.44L204.611 184.797C203.226 186.329 201.841 187.913 200.519 189.518H200.509ZM394.283 181.062C392.835 179.583 391.324 178.125 389.803 176.708L390.159 176.32C391.691 177.737 393.202 179.205 394.66 180.695L394.283 181.062ZM208.912 180.265L208.545 179.898C210.014 178.429 211.535 176.971 213.088 175.565L213.445 175.953C211.913 177.348 210.381 178.807 208.923 180.265H208.912ZM385.113 172.575C383.518 171.232 381.882 169.921 380.235 168.672L380.549 168.252C382.207 169.511 383.854 170.833 385.449 172.176L385.113 172.575ZM218.145 171.861L217.809 171.463C219.414 170.141 221.072 168.829 222.74 167.581L223.055 168.001C221.397 169.249 219.739 170.54 218.145 171.861ZM375.167 165C373.457 163.825 371.695 162.671 369.932 161.569L370.205 161.129C371.978 162.23 373.741 163.384 375.461 164.57L375.167 165ZM228.132 164.381L227.839 163.951C229.57 162.776 231.343 161.643 233.116 160.562L233.389 161.013C231.626 162.084 229.853 163.227 228.143 164.392L228.132 164.381ZM364.54 158.401C362.725 157.394 360.868 156.408 359 155.495L359.231 155.023C361.099 155.946 362.966 156.932 364.792 157.94L364.54 158.401ZM238.781 157.887L238.529 157.425C240.344 156.429 242.222 155.464 244.1 154.561L244.331 155.033C242.464 155.936 240.596 156.901 238.781 157.887ZM353.325 152.851C351.426 152.022 349.474 151.225 347.523 150.491L347.712 149.998C349.663 150.743 351.625 151.54 353.534 152.369L353.325 152.851ZM249.996 152.442L249.786 151.959C251.696 151.141 253.647 150.365 255.599 149.641L255.777 150.134C253.836 150.858 251.885 151.634 249.986 152.442H249.996ZM341.616 148.403C339.644 147.763 337.63 147.165 335.626 146.609L335.762 146.105C337.777 146.651 339.801 147.259 341.774 147.899L341.616 148.392V148.403ZM261.694 148.099L261.537 147.595C263.519 146.966 265.544 146.378 267.559 145.843L267.695 146.347C265.691 146.882 263.666 147.469 261.694 148.088V148.099ZM329.572 145.109C327.558 144.658 325.502 144.259 323.446 143.902L323.529 143.388C325.596 143.745 327.663 144.154 329.688 144.595L329.572 145.109ZM273.769 144.899L273.665 144.385C275.689 143.955 277.767 143.556 279.823 143.22L279.907 143.734C277.851 144.07 275.784 144.458 273.769 144.888V144.899ZM317.266 142.989C315.22 142.738 313.122 142.528 311.045 142.381L311.087 141.856C313.175 142.014 315.273 142.224 317.329 142.475L317.266 143V142.989ZM286.097 142.874L286.034 142.35C288.101 142.108 290.199 141.919 292.276 141.783L292.307 142.308C290.241 142.444 288.142 142.633 286.086 142.874H286.097ZM304.813 142.056C303.575 142.024 302.306 142.003 301.057 142.003C300.218 142.003 299.389 142.003 298.56 142.024V141.5C299.431 141.479 300.302 141.468 301.194 141.479C302.4 141.479 303.628 141.5 304.824 141.531V142.056H304.813Z" fill="white" style="opacity: 1;"></path><path d="M301.236 442.294C300.312 442.294 299.379 442.294 298.455 442.273V441.749C300.543 441.78 302.631 441.78 304.708 441.738V442.263C303.565 442.284 302.4 442.294 301.236 442.294ZM292.192 442.053C290.115 441.948 288.017 441.791 285.939 441.612L285.981 441.088C288.048 441.277 290.146 441.424 292.213 441.529L292.182 442.053H292.192ZM310.982 442.011L310.95 441.487C313.028 441.371 315.126 441.214 317.182 441.025L317.235 441.55C315.168 441.738 313.07 441.896 310.982 442.022V442.011ZM279.707 440.931C277.641 440.668 275.553 440.364 273.507 440.028L273.591 439.514C275.637 439.85 277.714 440.154 279.77 440.416L279.707 440.941V440.931ZM323.456 440.836L323.393 440.312C325.449 440.039 327.537 439.735 329.572 439.388L329.656 439.902C327.611 440.249 325.523 440.563 323.456 440.826V440.836ZM267.338 438.895C265.293 438.476 263.236 438.024 261.222 437.542L261.348 437.028C263.352 437.51 265.408 437.972 267.443 438.381L267.338 438.895ZM335.815 438.748L335.71 438.234C337.735 437.815 339.78 437.353 341.805 436.86L341.931 437.374C339.906 437.867 337.85 438.339 335.815 438.759V438.748ZM255.158 435.947C253.175 435.391 251.15 434.783 249.157 434.143L249.314 433.639C251.308 434.279 253.322 434.888 255.294 435.444L255.158 435.947ZM347.974 435.758L347.827 435.255C349.821 434.688 351.824 434.069 353.797 433.429L353.965 433.922C351.982 434.573 349.967 435.181 347.974 435.758ZM243.208 432.107C241.236 431.394 239.274 430.628 237.344 429.852L237.543 429.369C239.463 430.146 241.425 430.901 243.387 431.614L243.208 432.107ZM359.892 431.866L359.714 431.373C361.655 430.66 363.617 429.894 365.536 429.107L365.736 429.589C363.805 430.387 361.844 431.142 359.892 431.866ZM231.574 427.376C229.675 426.516 227.765 425.613 225.898 424.69L226.129 424.218C227.986 425.141 229.895 426.043 231.783 426.893L231.563 427.376H231.574ZM371.464 427.114L371.244 426.631C373.132 425.771 375.021 424.868 376.867 423.945L377.098 424.417C375.251 425.341 373.352 426.253 371.454 427.114H371.464ZM220.316 421.805C218.481 420.808 216.645 419.759 214.861 418.71L215.123 418.259C216.896 419.308 218.732 420.347 220.568 421.343L220.316 421.805ZM382.637 421.522L382.385 421.06C384.19 420.074 386.015 419.025 387.799 417.965L388.072 418.416C386.288 419.486 384.452 420.525 382.637 421.522ZM209.511 415.405C207.769 414.283 206.017 413.108 204.296 411.912L204.601 411.482C206.311 412.667 208.063 413.842 209.794 414.965L209.511 415.405ZM393.38 415.101L393.097 414.66C394.828 413.548 396.559 412.373 398.269 411.177L398.573 411.607C396.863 412.803 395.111 413.989 393.38 415.101ZM199.219 408.24C197.561 406.991 195.893 405.69 194.277 404.379L194.602 403.97C196.218 405.281 197.876 406.572 199.523 407.82L199.208 408.24H199.219ZM403.63 407.925L403.315 407.505C404.973 406.246 406.62 404.956 408.225 403.645L408.561 404.054C406.956 405.365 405.298 406.666 403.641 407.925H403.63ZM189.483 400.34C187.919 398.966 186.356 397.549 184.846 396.122L185.202 395.745C186.713 397.172 188.266 398.577 189.829 399.941L189.483 400.34ZM413.335 400.004L412.988 399.605C414.531 398.242 416.083 396.825 417.605 395.398L417.961 395.776C416.44 397.213 414.887 398.64 413.335 400.004ZM180.366 391.748C178.908 390.268 177.449 388.737 176.043 387.205L176.432 386.848C177.827 388.38 179.275 389.901 180.733 391.37L180.355 391.737L180.366 391.748ZM422.431 391.38L422.053 391.013C423.501 389.534 424.948 388.013 426.344 386.47L426.732 386.827C425.326 388.369 423.878 389.901 422.431 391.38ZM171.899 382.505C170.546 380.91 169.203 379.284 167.923 377.658L168.332 377.333C169.612 378.948 170.945 380.574 172.288 382.159L171.889 382.494L171.899 382.505ZM430.876 382.117L430.477 381.781C431.81 380.207 433.142 378.571 434.422 376.934L434.831 377.259C433.541 378.906 432.208 380.532 430.866 382.117H430.876ZM164.136 372.685C162.908 371.017 161.702 369.296 160.527 367.565L160.957 367.271C162.121 368.992 163.328 370.713 164.555 372.37L164.136 372.674V372.685ZM438.619 372.255L438.199 371.951C439.416 370.282 440.622 368.562 441.787 366.831L442.217 367.125C441.053 368.866 439.836 370.587 438.619 372.265V372.255ZM157.117 362.32C156.026 360.567 154.945 358.763 153.896 356.948L154.347 356.686C155.386 358.49 156.467 360.295 157.558 362.036L157.117 362.32ZM445.616 361.847L445.165 361.575C446.256 359.812 447.337 358.008 448.365 356.203L448.816 356.465C447.788 358.28 446.707 360.095 445.606 361.858L445.616 361.847ZM150.885 351.472C149.92 349.646 148.976 347.768 148.074 345.89L148.546 345.659C149.448 347.537 150.392 349.405 151.347 351.23L150.885 351.472ZM451.838 350.937L451.376 350.695C452.331 348.859 453.275 346.981 454.167 345.093L454.639 345.313C453.736 347.202 452.792 349.09 451.838 350.937ZM145.472 340.193C144.643 338.295 143.846 336.343 143.08 334.423L143.562 334.234C144.318 336.154 145.115 338.095 145.944 339.994L145.461 340.204L145.472 340.193ZM457.23 339.595L456.747 339.386C457.576 337.466 458.374 335.514 459.118 333.584L459.612 333.773C458.867 335.703 458.059 337.665 457.23 339.585V339.595ZM140.908 328.548C140.226 326.586 139.565 324.593 138.946 322.6L139.45 322.442C140.058 324.425 140.719 326.429 141.401 328.38L140.908 328.559V328.548ZM461.762 327.877L461.269 327.709C461.951 325.737 462.602 323.733 463.2 321.75L463.703 321.897C463.095 323.89 462.444 325.904 461.762 327.877ZM137.215 316.567C136.68 314.553 136.166 312.507 135.705 310.482L136.219 310.367C136.68 312.381 137.184 314.427 137.719 316.431L137.215 316.567ZM465.413 315.864L464.91 315.728C465.434 313.735 465.938 311.689 466.389 309.653L466.903 309.769C466.452 311.804 465.948 313.85 465.424 315.854L465.413 315.864ZM134.414 304.345C134.026 302.299 133.669 300.222 133.365 298.165L133.879 298.092C134.194 300.138 134.54 302.215 134.928 304.25L134.414 304.345ZM468.151 303.631L467.637 303.537C468.015 301.512 468.361 299.445 468.666 297.379L469.18 297.452C468.875 299.529 468.529 301.607 468.151 303.631ZM132.536 291.955C132.305 289.888 132.096 287.79 131.938 285.712L132.463 285.67C132.62 287.737 132.819 289.825 133.061 291.892L132.536 291.955ZM469.977 291.231L469.452 291.178C469.673 289.133 469.872 287.045 470.019 284.957L470.543 284.999C470.386 287.087 470.197 289.185 469.977 291.241V291.231ZM131.571 279.46C131.487 277.372 131.445 275.263 131.435 273.196H131.959C131.959 275.253 132.012 277.361 132.096 279.439L131.571 279.46ZM470.89 278.736L470.365 278.715C470.439 276.637 470.481 274.539 470.481 272.472C470.481 271.979 470.481 271.486 470.481 270.993H471.005C471.005 271.486 471.005 271.979 471.005 272.472C471.005 274.55 470.963 276.658 470.89 278.736ZM132.043 266.944L131.519 266.923C131.581 264.835 131.686 262.726 131.833 260.659L132.358 260.701C132.221 262.758 132.106 264.856 132.043 266.944ZM470.302 264.74C470.208 262.684 470.082 260.586 469.903 258.509L470.428 258.467C470.596 260.554 470.732 262.653 470.827 264.719L470.302 264.74ZM132.893 254.48L132.368 254.427C132.589 252.35 132.851 250.262 133.145 248.206L133.659 248.28C133.365 250.325 133.103 252.413 132.893 254.48ZM469.285 252.287C469.043 250.241 468.76 248.154 468.435 246.097L468.949 246.013C469.274 248.08 469.557 250.168 469.799 252.224L469.274 252.287H469.285ZM134.666 242.111L134.152 242.016C134.519 239.97 134.939 237.904 135.379 235.868L135.893 235.984C135.453 238.009 135.033 240.075 134.666 242.111ZM467.354 239.95C466.955 237.914 466.515 235.858 466.043 233.844L466.557 233.728C467.029 235.753 467.47 237.82 467.868 239.855L467.354 239.96V239.95ZM137.341 229.909L136.838 229.783C137.362 227.769 137.929 225.734 138.527 223.751L139.03 223.898C138.443 225.881 137.876 227.906 137.352 229.92L137.341 229.909ZM464.511 227.78C463.965 225.786 463.378 223.772 462.759 221.789L463.263 221.632C463.882 223.625 464.48 225.65 465.025 227.643L464.521 227.78H464.511ZM140.919 217.939L140.426 217.771C141.097 215.788 141.821 213.795 142.555 211.864L143.048 212.053C142.314 213.984 141.59 215.966 140.919 217.949V217.939ZM460.776 215.862C460.073 213.889 459.339 211.927 458.573 210.007L459.056 209.819C459.821 211.739 460.556 213.711 461.259 215.683L460.766 215.862H460.776ZM145.388 206.241L144.905 206.031C145.713 204.122 146.584 202.202 147.476 200.303L147.948 200.523C147.056 202.412 146.196 204.342 145.388 206.241ZM456.17 204.269C455.331 202.37 454.45 200.471 453.548 198.614L454.02 198.383C454.922 200.24 455.803 202.15 456.643 204.059L456.16 204.269H456.17ZM150.718 194.911L150.256 194.669C151.211 192.812 152.218 190.955 153.235 189.151L153.697 189.413C152.679 191.218 151.683 193.075 150.728 194.921L150.718 194.911ZM450.725 193.054C449.75 191.228 448.732 189.392 447.694 187.609L448.145 187.346C449.183 189.14 450.211 190.976 451.187 192.812L450.725 193.054ZM156.865 184.01L156.414 183.737C157.495 181.975 158.638 180.191 159.792 178.45L160.233 178.744C159.079 180.475 157.946 182.248 156.865 184.01ZM444.462 182.269C443.361 180.517 442.207 178.764 441.042 177.054L441.472 176.761C442.647 178.481 443.801 180.244 444.913 181.996L444.473 182.279L444.462 182.269ZM163.8 173.603L163.37 173.299C164.587 171.609 165.846 169.92 167.126 168.284L167.535 168.609C166.255 170.246 164.996 171.935 163.79 173.613L163.8 173.603ZM437.423 171.966C436.185 170.298 434.915 168.63 433.625 167.014L434.034 166.689C435.324 168.315 436.615 169.983 437.842 171.651L437.423 171.966ZM171.469 163.741L171.071 163.405C172.403 161.821 173.788 160.226 175.183 158.674L175.571 159.03C174.176 160.573 172.791 162.157 171.469 163.741ZM429.638 162.209C428.295 160.646 426.9 159.083 425.484 157.551L425.872 157.194C427.288 158.726 428.694 160.3 430.037 161.874L429.638 162.22V162.209ZM179.852 154.467L179.474 154.1C180.922 152.61 182.412 151.131 183.922 149.683L184.29 150.06C182.789 151.498 181.289 152.977 179.852 154.456V154.467ZM421.161 153.04C419.703 151.571 418.192 150.113 416.671 148.697L417.028 148.308C418.549 149.735 420.07 151.193 421.528 152.662L421.161 153.029V153.04ZM188.885 145.843L188.538 145.455C190.102 144.07 191.696 142.696 193.302 141.384L193.637 141.793C192.043 143.105 190.448 144.469 188.895 145.853L188.885 145.843ZM412.023 144.521C410.439 143.147 408.823 141.804 407.229 140.513L407.554 140.104C409.159 141.395 410.775 142.748 412.369 144.122L412.023 144.521ZM198.516 137.901L198.201 137.481C199.838 136.222 201.537 134.984 203.247 133.767L203.551 134.198C201.852 135.404 200.163 136.642 198.526 137.891L198.516 137.901ZM402.277 136.684C400.609 135.446 398.899 134.219 397.199 133.044L397.493 132.613C399.203 133.799 400.923 135.026 402.592 136.275L402.277 136.695V136.684ZM208.703 130.694L208.419 130.253C210.15 129.12 211.934 127.997 213.718 126.927L213.99 127.378C212.207 128.448 210.434 129.571 208.703 130.694ZM391.985 129.581C390.233 128.469 388.439 127.368 386.645 126.319L386.907 125.868C388.712 126.917 390.506 128.018 392.258 129.141L391.974 129.581H391.985ZM219.383 124.252L219.131 123.79C220.956 122.783 222.813 121.797 224.66 120.863L224.901 121.335C223.065 122.269 221.208 123.245 219.393 124.252H219.383ZM381.189 123.255C379.353 122.269 377.476 121.304 375.619 120.391L375.849 119.919C377.706 120.832 379.595 121.797 381.431 122.783L381.179 123.245L381.189 123.255ZM230.504 118.629L230.283 118.146C232.172 117.275 234.102 116.436 236.011 115.639L236.211 116.121C234.312 116.908 232.392 117.747 230.504 118.618V118.629ZM369.943 117.747C368.044 116.908 366.103 116.079 364.173 115.313L364.372 114.831C366.313 115.607 368.254 116.436 370.153 117.275L369.943 117.758V117.747ZM242.002 113.845L241.813 113.352C243.775 112.617 245.758 111.914 247.72 111.274L247.888 111.767C245.936 112.418 243.953 113.11 241.991 113.845H242.002ZM358.318 113.089C356.367 112.386 354.374 111.715 352.38 111.085L352.538 110.582C354.531 111.211 356.535 111.893 358.497 112.596L358.318 113.089ZM253.857 109.921L253.71 109.417C255.714 108.84 257.749 108.284 259.764 107.781L259.89 108.284C257.886 108.788 255.85 109.333 253.857 109.921ZM346.39 109.312C344.386 108.756 342.351 108.242 340.336 107.76L340.462 107.246C342.487 107.728 344.522 108.253 346.537 108.798L346.4 109.302L346.39 109.312ZM265.974 106.878L265.87 106.364C267.915 105.934 269.982 105.536 272.017 105.179L272.112 105.693C270.077 106.039 268.02 106.438 265.974 106.868V106.878ZM334.231 106.438C332.206 106.039 330.128 105.672 328.083 105.336L328.167 104.822C330.223 105.147 332.3 105.525 334.335 105.924L334.231 106.438ZM278.281 104.749L278.207 104.224C280.264 103.941 282.362 103.7 284.429 103.5L284.481 104.025C282.425 104.224 280.337 104.465 278.281 104.749ZM321.893 104.465C319.858 104.214 317.759 104.004 315.682 103.825L315.724 103.301C317.812 103.479 319.91 103.7 321.956 103.941L321.893 104.465ZM290.713 103.532L290.681 103.007C292.748 102.881 294.857 102.787 296.945 102.745V103.269C294.878 103.322 292.78 103.406 290.713 103.532ZM309.45 103.406C307.373 103.311 305.275 103.248 303.208 103.217V102.692C305.285 102.713 307.394 102.776 309.471 102.881L309.45 103.406Z" fill="white" style="opacity: 1;"></path><path d="M236.955 152.725C254.895 143.073 275.259 137.355 296.892 136.694V107.539C269.95 108.221 244.614 115.366 222.373 127.483L236.955 152.735V152.725Z" fill="#5A9678" style="opacity: 1;"></path><path d="M305.327 136.694C326.971 137.355 347.324 143.083 365.264 152.725L379.847 127.472C357.605 115.355 332.269 108.21 305.327 107.528V136.684V136.694Z" fill="#5A9678" style="opacity: 1;"></path><path d="M185.779 200.827C196.827 183.034 211.871 168 229.654 156.953L215.071 131.7C192.871 145.318 174.145 164.045 160.527 186.244L185.779 200.827Z" fill="#5A9678" style="opacity: 1;"></path><path d="M165.51 268.076C166.171 246.433 171.899 226.08 181.541 208.139L156.288 193.557C144.171 215.798 137.026 241.135 136.344 268.076H165.499H165.51Z" fill="#5A9678" style="opacity: 1;"></path><path d="M181.551 336.448C171.899 318.508 166.181 298.145 165.52 276.512H136.365C137.047 303.453 144.192 328.79 156.309 351.031L181.562 336.448H181.551Z" fill="#5A9678" style="opacity: 1;"></path><path d="M185.779 343.75L160.527 358.333C174.145 380.532 192.871 399.259 215.071 412.877L229.654 387.624C211.861 376.577 196.827 361.533 185.779 343.75Z" fill="#5A9678" style="opacity: 1;"></path><path d="M296.892 407.883C275.248 407.222 254.895 401.494 236.955 391.853L222.373 417.105C244.614 429.222 269.95 436.367 296.892 437.049V407.894V407.883Z" fill="#5A9678" style="opacity: 1;"></path><path d="M365.264 391.852C347.324 401.504 326.96 407.222 305.327 407.883V437.038C332.269 436.356 357.605 429.212 379.847 417.094L365.264 391.842V391.852Z" fill="#5A9678" style="opacity: 1;"></path><path d="M416.44 343.75C405.393 361.543 390.348 376.577 372.565 387.624L387.148 412.877C409.348 399.259 428.075 380.532 441.692 358.333L416.44 343.75Z" fill="#5A9678" style="opacity: 1;"></path><path d="M436.709 276.512C436.048 298.155 430.32 318.508 420.678 336.448L445.931 351.031C458.048 328.79 465.193 303.453 465.875 276.512H436.719H436.709Z" fill="#5A9678" style="opacity: 1;"></path><path d="M420.668 208.13C430.32 226.07 436.037 246.433 436.698 268.066H465.854C465.172 241.125 458.027 215.788 445.91 193.547L420.657 208.13H420.668Z" fill="#5A9678" style="opacity: 1;"></path><path d="M416.44 200.827L441.692 186.244C428.075 164.045 409.348 145.318 387.148 131.7L372.565 156.953C390.359 168 405.393 183.044 416.44 200.827Z" fill="#5A9678" style="opacity: 1;"></path></g><g data-id="svg-quarter-ring" style="translate: none; rotate: none; scale: none; transform-origin: 0px 0px;" data-svg-origin="305 268.7239990234375" transform="matrix(0.99959,0.0286,-0.0286,0.99959,7.81056,-8.61282)"><path data-id="svg-quarter-ring-yellow" d="M454.311 188.188C467.523 212.153 475.268 239.564 475.862 268.724H508.525C508.076 242.042 502.624 216.137 492.273 191.668C489.395 184.861 486.164 178.255 482.604 171.849L454.311 188.188Z" fill="#FFE300" style="opacity: 1;"></path><path data-id="svg-quarter-ring-green" d="M391.758 123.005C415.842 137.613 436.111 157.881 450.718 181.966L479.02 165.626C470.353 151.21 459.947 137.885 447.888 125.835C435.838 113.785 422.513 103.37 408.097 94.7031L391.758 123.005V123.005Z" fill="#A1E5BD" style="opacity: 1;"></path><path data-id="svg-quarter-ring-blue" d="M305 97.8637C334.168 98.457 361.571 106.194 385.536 119.415L401.875 91.1129C395.469 87.5612 388.863 84.3221 382.056 81.4438C357.595 71.0933 331.682 65.6414 305 65.1924V97.8637Z" fill="#33CAFF" style="opacity: 1;"></path></g><g data-id="svg-shapes"><path data-id="svg-diamond" d="M511.151 442.717L497.071 456.797L511.151 470.877L525.232 456.797L511.151 442.717Z" fill="#33CAFF" style="translate: none; rotate: none; scale: none; transform-origin: 0px 0px;" data-svg-origin="511.15150451660156 456.79701232910156" transform="matrix(1.08417,1.18266,-1.18266,1.08417,497.21193,-617.1633)"></path><path d="M480.188 78.0571L465.233 93.0127L480.188 107.968L495.144 93.0127L480.188 78.0571Z" fill="#5A9678" style="translate: none; rotate: none; scale: none; transform-origin: 0px 0px;" data-svg-origin="465.2330017089844 78.05709838867188" transform="matrix(1,0,0,1,0,28.38411)"></path><path d="M571.826 355.563C571.826 370.293 559.887 382.242 545.147 382.242C530.406 382.242 518.467 370.303 518.467 355.563C518.467 340.823 530.406 328.884 545.147 328.884C559.887 328.884 571.826 340.823 571.826 355.563Z" fill="#A1E5BD" style="translate: none; rotate: none; scale: none; transform-origin: 0px 0px;" data-svg-origin="518.4669799804688 328.8840026855469" transform="matrix(1,0,0,1,0,30.96449)"></path><path d="M410.691 462.322C410.691 471.083 403.588 478.196 394.818 478.196C386.047 478.196 378.944 471.093 378.944 462.322C378.944 453.552 386.047 446.449 394.818 446.449C403.588 446.449 410.691 453.552 410.691 462.322Z" fill="#FFE300" style="translate: none; rotate: none; scale: none; transform-origin: 0px 0px;" data-svg-origin="378.9440002441406 446.4490051269531" transform="matrix(1,0,0,1,0,33.54486)"></path><path d="M126.913 334.098C126.913 349.415 114.502 361.826 99.1844 361.826C83.8672 361.826 71.4561 349.415 71.4561 334.098C71.4561 318.78 83.8672 306.369 99.1844 306.369C114.502 306.369 126.913 318.78 126.913 334.098Z" fill="#33CAFF" style="translate: none; rotate: none; scale: none; transform-origin: 0px 0px;" data-svg-origin="71.45610046386719 306.3689880371094" transform="matrix(1,0,0,1,0,36.12524)"></path></g></g></svg>